<svg xmlns="http://www.w3.org/2000/svg" style="display: none;">
  
    <symbol id="icon-ar-l" viewBox="0 0 512 512">
      <path d="m437 75l-362 181 362 181z"/>
    </symbol>
  
    <symbol id="icon-ar-r" viewBox="0 0 512 512">
      <path d="m75 437l362-181-362-181z"/>
    </symbol>
  
    <symbol id="icon-eye" viewBox="0 0 512 512">
      <path d="m256 96c-112 0-208 65-256 160 48 95 144 160 256 160 112 0 208-65 256-160-48-95-144-160-256-160z m126 85c30 19 56 45 75 75-19 30-45 56-75 75-38 24-81 37-126 37-45 0-88-13-126-37-30-19-56-45-75-75 19-30 45-56 75-75 2-1 4-3 6-4-5 14-8 29-8 44 0 71 57 128 128 128 71 0 128-57 128-128 0-15-3-30-8-44 2 1 4 3 6 4z m-126 24c0 27-21 48-48 48-26 0-48-21-48-48 0-26 22-48 48-48 27 0 48 22 48 48z"/>
    </symbol>
  
    <symbol id="icon-home" viewBox="0 0 512 512">
      <path d="m512 268c0 12-12 24-24 24-6 0-12-3-15-6l-214-214-214 214c-3 3-9 6-18 6-12 0-24-12-24-24 0-6 3-12 6-18l232-232c3-6 9-6 18-6 6 0 12 3 15 6l93 93 0-21c0-12 12-24 25-24 12 0 24 12 24 24l0 70 90 90c3 6 6 12 6 18z m-48 39l0 169c0 12-12 24-24 24l-48 0 0-193-97 0 0 193-223 0c-12 0-24-12-24-24l0-169 208-208z m-247 0l-97 0 0 97 97 0z"/>
    </symbol>
  
    <symbol id="icon-key" viewBox="0 0 512 512">
      <path d="m467 51c-60-60-157-60-214 0-39 39-51 97-39 148l-214 214 0 72c0 12 6 18 18 18l90 0 0-51 52 0 0-51 51 0 0-52 69 0 42-42c51 15 106 0 148-39 57-60 57-157-3-217z m-30 91c-15 15-42 15-58 0-15-16-15-43 0-58 16-15 43-15 58 0 15 15 15 39 0 58z"/>
    </symbol>
  
    <symbol id="icon-trash" viewBox="0 0 512 512">
      <path d="m51 78c0-15 12-27 24-27l127 0 0-27c0-15 12-27 24-27l51 0c15 0 24 12 24 27l0 27 127 0c15 0 24 12 24 27l0 27-410 0 0-27z m383 407c0 15-12 27-24 27l-308 0c-15 0-24-12-24-27l0-352 359 0 0 352z m-253-274c0-15-12-27-24-27-15 0-24 12-24 27l0 220c0 15 12 27 24 27 15 0 24-12 24-27z m99 0c0-15-12-27-24-27-15 0-24 12-24 27l0 220c0 15 12 27 24 27 15 0 24-12 24-27z m102 0c0-15-12-27-24-27-15 0-24 12-24 27l0 220c0 15 12 27 24 27 15 0 24-12 24-27z"/>
    </symbol>
  
    <symbol id="icon-lock-gold" viewBox="0 0 512 512">
      <path d="m379 229l0-99c0-70-57-130-126-130-69 0-127 57-127 126l0 103c-27 0-51 24-51 51l0 181c0 27 24 51 51 51l260 0c27 0 51-24 51-51l0-178c0-39-15-54-58-54z m-123 184c-21 0-39-18-39-40 0-21 18-39 39-39 21 0 39 18 39 39 0 22-18 40-39 40z m75-187l-156 0 0-103c0-42 33-78 78-78 45 0 78 33 78 78z"/>
    </symbol>
  
    <symbol id="icon-lock-red" viewBox="0 0 512 512">
      <path d="m370 232c-48 0-189 0-189 0l0-102c0-43 33-79 78-79 45 0 78 33 78 79l0 27 52 0 0-27c0-70-58-127-127-127-69 0-126 57-126 127l0 102c-28 0-52 24-52 51l0 181c0 27 24 51 52 51l253 0c27 0 51-24 51-51l0-178c-6-27-21-54-70-54z m-114 178c-21 0-39-18-39-40 0-21 18-39 39-39 21 0 39 18 39 39 0 22-15 40-39 40z"/>
    </symbol>
  
    <symbol id="icon-pencil" viewBox="0 0 512 512">
      <path d="m470 154l30-31c15-15 15-42 0-60l-51-51c-15-15-42-15-60 0l-28 27c0 0 0 0-3 3z m-395 283l55 54-64 12-66 9 9-66 12-64z m301-347l-295 292-18-15 295-295-15-15-310 310 112 112 310-310z"/>
    </symbol>
  
    <symbol id="icon-pin" viewBox="0 0 512 512">
      <path d="m340 250l97-96c24 6 51 3 75-6l-148-148c-12 24-12 51-6 75l-96 97c-45-21-96-21-142-3l85 84-202 259 259-202 84 85c15-46 15-100-6-145z m-153-45c0 0-21-21-27-27 48-15 78 6 78 6-30-9-51 21-51 21z"/>
    </symbol>
  
    <symbol id="icon-pin-lock" viewBox="0 0 512 512">
      <path d="m379 229l0-99c0-70-57-130-126-130-69 0-127 57-127 126l0 103c-27 0-51 24-51 51l0 181c0 27 24 51 51 51l260 0c27 0 51-24 51-51l0-178c0-39-15-54-58-54z m-204-106c0-42 33-78 78-78 45 0 78 33 78 78l0 103-156 0z m171 190l-48 48c12 25 12 52 3 73l-42-42-129 99 102-130-42-42c24-9 48-9 72 0l48-48c-3-12-3-24 3-39l76 75c-19 9-31 9-43 6z"/>
    </symbol>
  
    <symbol id="icon-refresh" viewBox="0 0 512 512">
      <path d="m404 364l108-126-72 0c-3-33-12-60-27-87-31-58-100-112-190-112-292 0-295 437 0 437 48 0 93-15 132-45l9-6-48-52-6 6c-24 19-54 28-84 28-81 0-145-64-145-145 0-81 67-145 145-145 75 0 138 55 147 127l-84 0z"/>
    </symbol>
  
    <symbol id="icon-return" viewBox="0 0 512 512">
      <path d="m476 220l-340 0 132-133c15-15 15-36 0-51-15-15-36-15-51 0l-193 193c-15 15-15 36 0 51l193 193c6 6 15 9 24 9 9 0 18-3 24-9 15-15 15-36 0-51l-132-133 340 0c21 0 36-15 36-36 0-21-15-33-33-33z"/>
    </symbol>
  
    <symbol id="icon-safes" viewBox="0 0 512 512">
      <path d="m256 0c-69 0-133 27-178 72l-42-39c-6-6-15-9-24-6-9 3-12 9-12 18l0 148c0 3 3 6 3 12 0 0 3 3 3 3 3 6 9 6 15 6l151 0c9 0 15-3 18-12 3-9 3-18-6-24l-42-42c30-28 69-46 114-46 90 0 166 76 166 166 0 90-76 166-166 166-54 0-102-27-133-70l-69 61c48 60 121 99 202 99 142 0 256-114 256-256 0-142-114-256-256-256z m15 298c3 0 6 0 6-3 3-3 3-6 3-6l0-147c0-3-3-6-3-6-3-3-6-3-6-3l-21 0c-3 0-6 0-6 3-3 3-3 6-3 6l0 117-75 0c-3 0-6 0-6 3-3 3-3 6-3 6l0 21c0 3 0 6 3 6 3 3 6 3 6 3z"/>
    </symbol>
  
    <symbol id="icon-save" viewBox="0 0 512 512">
      <path d="m288 81l49 0 0 89-49 0z m111-59l-372 0 0 466 453 0 0-386z m-262 35l232 0 0 137-232 0z m281 396l-324 0 0-181 324 0z m-35-130l-256 0 0-21 256 0z m0 27l-256 0 0 22 256 0z m0 49l-256 0 0 21 256 0z"/>
    </symbol>
  
    <symbol id="icon-send" viewBox="0 0 512 512">
      <path d="m0 476l512-220-512-220 0 172 364 48-364 48z"/>
    </symbol>
  
    <symbol id="icon-send-lock" viewBox="0 0 512 512">
      <path d="m379 229l0-99c0-70-57-130-126-130-69 0-127 57-127 126l0 103c-27 0-51 24-51 51l0 181c0 27 24 51 51 51l260 0c27 0 51-24 51-51l0-178c0-39-15-54-58-54z m-204-106c0-42 33-78 78-78 45 0 78 33 78 78l0 103-156 0z m-21 350l0-75 159-22-159-21 0-75 225 96z"/>
    </symbol>
  
    <symbol id="icon-eye-red" viewBox="0 0 512 512">
      <path d="m437 160l36-27-30-43-51 36c-40-21-85-33-133-33-111 0-211 67-256 160 18 42 48 75 84 102l-42 34 30 42 61-45c39 18 81 30 123 30 111 0 211-67 256-160-21-39-48-69-78-96z m-229-3c27 0 48 21 48 48 0 27-21 48-48 48-27 0-48-21-48-48 0-27 21-48 48-48z m-151 99c18-30 42-57 73-75 3 0 3-3 6-3-6 15-10 27-10 42 0 33 13 60 31 84l-34 24c-27-18-48-45-66-72z m325 75c-39 24-81 39-126 39-27 0-54-6-81-15l24-18c18 9 36 12 57 12 72 0 130-57 130-129 0-6 0-15-4-21l13-9c24 18 45 42 60 66-18 30-42 57-73 75z"/>
    </symbol>
  
</svg>
